<svg width="260" height="35" viewBox="0 0 260 35" fill="none" xmlns="http://www.w3.org/2000/svg">
<path fill-rule="evenodd" clip-rule="evenodd" d="M6.44572 1.15072H41.6124L34.2896 10.9029H24.6185L24.4527 34.0949H14.0126L14.1766 11.1466H0L6.44572 1.15082V1.15072ZM152.87 0.533299H165.577C173.99 0.533299 180.818 8.16861 180.752 17.5007C180.685 26.833 173.747 34.468 165.334 34.468H152.627C144.215 34.468 137.386 26.8331 137.452 17.5007C137.519 8.16861 144.457 0.533299 152.87 0.533299ZM164.102 10.5891H154.2C150.773 10.5891 147.947 13.699 147.92 17.5007V17.5009C147.893 21.3022 150.675 24.4126 154.102 24.4126H164.003C167.43 24.4126 170.257 21.3022 170.284 17.5009V17.5007C170.311 13.6991 167.529 10.5891 164.102 10.5891H164.102ZM211.17 0.906712C218.383 2.15779 222.524 5.53772 223.405 11.177L223.383 14.2247C222.775 19.2154 220.407 21.978 217.039 23.4741L226.455 34.1253H212.196L205.387 25.7749H193.628L193.57 33.9426H182.69L182.717 17.6541H182.69L182.696 0.906616C192.188 0.906616 201.679 0.906616 211.17 0.906616L211.17 0.906712ZM212.621 13.0973C212.147 11.7018 211.178 11.1905 209.998 11.0554H193.61L193.604 16.1446H210.388C211.68 15.8419 212.415 15.1878 212.613 14.1942L212.621 13.0973ZM71.5377 0.906712C78.7505 2.15779 82.8913 5.53772 83.7723 11.177L83.7508 14.2247C83.1421 19.2154 80.7745 21.978 77.4066 23.4741L86.8225 34.1253H72.5635L65.7549 25.7749H53.9958L53.9374 33.9426H43.0574L43.0849 17.6541H43.0574L43.0637 0.906616C52.5552 0.906616 62.0462 0.906616 71.5377 0.906616V0.906712ZM72.9885 13.0973C72.5144 11.7018 71.5454 11.1905 70.3655 11.0554H53.9772L53.9716 16.1446H70.7552C72.0474 15.8419 72.7827 15.1878 72.9808 14.1942L72.9885 13.0973ZM253.182 0.533299L260 10.522L241.806 10.5891C238.379 10.6014 235.553 13.6994 235.525 17.5009C235.498 21.3022 238.28 24.4173 241.707 24.4126L259.942 24.3885L252.939 34.4679H240.233C231.82 34.4679 224.991 26.833 225.058 17.5006C225.125 8.16851 232.062 0.533203 240.475 0.533203H253.182V0.533299ZM107.547 1.15072H142.713L135.39 10.9029H125.719L125.554 34.0949H115.113L115.278 11.1466H101.101L107.547 1.15082L107.547 1.15072ZM88.7644 1.18089L99.2185 1.15072L98.9611 34.0949H88.521L88.7644 1.18098V1.18089Z" fill="#D42427"/>
</svg>
