<svg width="1440" height="614" viewBox="0 0 1440 614" fill="none" xmlns="http://www.w3.org/2000/svg">
<g clip-path="url(#clip0_421_1397)">
<path d="M1108 0H1135V354.5C1135 361.956 1128.96 368 1121.5 368C1114.04 368 1108 361.956 1108 354.5V0Z" fill="url(#paint0_linear_421_1397)"/>
<path d="M1031 -23H1054V226.5C1054 232.851 1048.85 238 1042.5 238C1036.15 238 1031 232.851 1031 226.5V-23Z" fill="#2F4DC7"/>
<path d="M1623 480.178V507.178L1353.5 507.178C1346.04 507.178 1340 501.134 1340 493.678C1340 486.222 1346.04 480.178 1353.5 480.178L1623 480.178Z" fill="url(#paint1_linear_421_1397)"/>
<path d="M-95 325V352L311.5 352C318.956 352 325 345.956 325 338.5C325 331.044 318.956 325 311.5 325L-95 325Z" fill="url(#paint2_linear_421_1397)"/>
<path d="M1031 -30H1054V176.5C1054 182.851 1048.85 188 1042.5 188C1036.15 188 1031 182.851 1031 176.5V-30Z" fill="#638EEA"/>
<path d="M1221.96 195.796L1222.76 256.195C1222.86 263.472 1216.91 269.384 1209.64 269.244C1202.62 269.108 1197 263.38 1197 256.361L1197.03 184.693C1197.05 137.33 1235.39 98.9129 1282.75 98.8052L1624.24 98.029C1631.28 98.013 1637 103.72 1637 110.764C1637 117.798 1631.3 123.5 1624.26 123.5H1293.3C1253.53 123.5 1221.43 156.025 1221.96 195.796Z" stroke="#2F4DC7" stroke-width="2"/>
<path d="M152.637 484.704L151.834 424.305C151.738 417.028 157.685 411.116 164.961 411.256C171.979 411.392 177.596 417.12 177.593 424.139L177.568 495.807C177.551 543.17 139.208 581.587 91.8455 581.695L-249.638 582.471C-256.683 582.487 -262.402 576.78 -262.402 569.736C-262.402 562.702 -256.7 557 -249.667 557H81.2949C121.07 557 153.165 524.475 152.637 484.704Z" stroke="#2F4DC7" stroke-width="2"/>
<path d="M1028.53 385L1027.68 474.471C1027.61 481.371 1033.19 487 1040.09 487C1046.94 487 1052.5 481.444 1052.5 474.589V374.24C1052.5 312.168 1002.33 261.768 940.261 261.481L837.492 261.006C776.939 260.726 728 211.56 728 151.007V1.5C728 -4.85127 722.851 -10 716.5 -10C710.149 -10 705 -4.85128 705 1.49999V153C705 224.797 763.203 283 835 283H927.495C983.673 283 1029.06 328.825 1028.53 385Z" stroke="#2F4DC7" stroke-width="2"/>
<path d="M1108.79 495.191L1107.94 406.412C1107.87 398.792 1114.1 392.616 1121.72 392.756C1129.09 392.891 1135 398.908 1135 406.283V504.466C1135 567.169 1084.17 618 1021.47 618H926.06C913.353 618 903.047 628.293 903.031 641L903.013 654.506C903.006 659.751 898.752 664 893.506 664C888.256 664 884 659.744 884 654.494V614.501C884 604.007 892.507 595.5 903.001 595.5L1008.44 596.01C1064.15 596.279 1109.31 550.906 1108.79 495.191Z" fill="#2F4DC7"/>
<path d="M47.7851 158.809L46.9407 247.588C46.8682 255.208 53.0999 261.384 60.7188 261.244C68.093 261.109 74 255.092 74 247.717V149.534C74 86.831 23.1689 36 -39.5343 36H-146.747C-152.933 36 -157.953 41.0064 -157.969 47.1929C-157.986 53.4239 -152.923 58.4754 -146.692 58.4453L-52.5637 57.99C3.15289 57.7205 48.315 103.094 47.7851 158.809Z" fill="#2F4DC7"/>
<path d="M1197 442V312C1197 305.096 1202.6 299.5 1209.5 299.5C1216.4 299.5 1222 305.096 1222 312V429.5C1222 457.943 1245.06 481 1273.5 481H1312.5C1319.4 481 1325 486.596 1325 493.5C1325 500.404 1319.4 506 1312.5 506H1261C1225.65 506 1197 477.346 1197 442Z" stroke="#2F4DC7" stroke-width="2"/>
<rect x="1027" y="489" width="72" height="27" rx="13.5" transform="rotate(-90 1027 489)" fill="#638EEA"/>
<rect x="1196" y="325" width="27" height="27" rx="13.5" transform="rotate(-90 1196 325)" fill="#638EEA"/>
<rect x="1301" y="507" width="27" height="27" rx="13.5" transform="rotate(-90 1301 507)" fill="#638EEA"/>
<rect x="1376" y="507" width="27" height="100" rx="13.5" transform="rotate(-90 1376 507)" fill="#638EEA"/>
<rect width="27" height="27" rx="13.5" transform="matrix(0 -1 -1 0 325 352)" fill="#638EEA"/>
<rect x="1196" y="242" width="68" height="27" rx="13.5" transform="rotate(-90 1196 242)" fill="#638EEA"/>
<rect x="178.598" y="438.5" width="68" height="27" rx="13.5" transform="rotate(90 178.598 438.5)" fill="#638EEA"/>
<rect x="1341.09" y="97.5566" width="297.485" height="27" rx="13.5" transform="rotate(-0.0554052 1341.09 97.5566)" fill="url(#paint3_linear_421_1397)"/>
<rect x="33.5117" y="582.943" width="297.485" height="27" rx="13.5" transform="rotate(179.945 33.5117 582.943)" fill="url(#paint4_linear_421_1397)"/>
<rect x="1108" y="419" width="27" height="27" rx="13.5" transform="rotate(-90 1108 419)" fill="#638EEA"/>
<rect width="27" height="27" rx="13.5" transform="matrix(0 1 1 0 47 235)" fill="#638EEA"/>
<rect x="1108" y="267" width="87" height="27" rx="13.5" transform="rotate(-90 1108 267)" fill="#638EEA"/>
</g>
<defs>
<linearGradient id="paint0_linear_421_1397" x1="1121.5" y1="0" x2="1121.5" y2="368" gradientUnits="userSpaceOnUse">
<stop stop-color="#1C3CAD"/>
<stop offset="1" stop-color="#2F4DC7"/>
</linearGradient>
<linearGradient id="paint1_linear_421_1397" x1="1623" y1="493.678" x2="1340" y2="493.678" gradientUnits="userSpaceOnUse">
<stop stop-color="#1C3CAD"/>
<stop offset="1" stop-color="#2F4DC7"/>
</linearGradient>
<linearGradient id="paint2_linear_421_1397" x1="-95" y1="338.5" x2="325" y2="338.5" gradientUnits="userSpaceOnUse">
<stop stop-color="#1C3CAD"/>
<stop offset="1" stop-color="#2F4DC7"/>
</linearGradient>
<linearGradient id="paint3_linear_421_1397" x1="1654.99" y1="108.804" x2="1347.99" y2="111.007" gradientUnits="userSpaceOnUse">
<stop stop-color="#1C3CAD"/>
<stop offset="1" stop-color="#2F4DC7"/>
</linearGradient>
<linearGradient id="paint4_linear_421_1397" x1="347.415" y1="594.19" x2="40.4128" y2="596.393" gradientUnits="userSpaceOnUse">
<stop stop-color="#1C3CAD"/>
<stop offset="1" stop-color="#2F4DC7"/>
</linearGradient>
<clipPath id="clip0_421_1397">
<rect width="1440" height="614" fill="white"/>
</clipPath>
</defs>
</svg>
