<svg width="360" height="663" viewBox="0 0 360 663" fill="none" xmlns="http://www.w3.org/2000/svg">
<g clip-path="url(#clip0_436_2371)">
<path d="M188 -118H215V236.5C215 243.956 208.956 250 201.5 250C194.044 250 188 243.956 188 236.5V-118Z" fill="url(#paint0_linear_436_2371)"/>
<path d="M111 -111H134V138.5C134 144.851 128.851 150 122.5 150C116.149 150 111 144.851 111 138.5V-111Z" fill="#2F4DC7"/>
<path d="M111 -118H134V88.5C134 94.8513 128.851 100 122.5 100C116.149 100 111 94.8513 111 88.5V-118Z" fill="#638EEA"/>
<path d="M301.961 157.796L302.763 218.195C302.86 225.472 296.913 231.384 289.636 231.244C282.619 231.108 277.002 225.38 277.004 218.361L277.03 146.693C277.046 99.3295 315.389 60.9129 362.752 60.8052L704.236 60.029C711.28 60.013 717 65.7196 717 72.7645C717 79.7981 711.298 85.5 704.264 85.5H373.303C333.527 85.5 301.432 118.025 301.961 157.796Z" stroke="#2F4DC7" stroke-width="2"/>
<path d="M38.5299 347L37.679 436.471C37.6133 443.371 43.1888 449 50.0892 449C56.9435 449 62.5 443.444 62.5 436.589V336.24C62.5 274.168 12.3328 223.768 -49.7387 223.481L-149.522 223.02C-211.726 222.732 -262 172.225 -262 110.021V-36.5C-262 -42.8513 -267.149 -48 -273.5 -48C-279.851 -48 -285 -42.8513 -285 -36.5V115C-285 186.797 -226.797 245 -155 245H-62.5046C-6.32664 245 39.0642 290.825 38.5299 347Z" stroke="#2F4DC7" stroke-width="2"/>
<path d="M63.5162 764.61L61.921 566.948C61.8593 559.313 68.1199 553.137 75.7536 553.302C83.1153 553.462 89 559.475 89 566.839V766.7C89 795.443 65.6991 818.744 36.9561 818.744H24.5285C6.28736 818.744 -8.5 833.531 -8.5 851.772V901.25C-8.5 908.292 -14.2084 914 -21.25 914C-28.2916 914 -34 908.292 -34 901.25V855.841C-34 821.11 -5.7402 793.011 28.99 793.209L34.9515 793.243C50.7911 793.333 63.644 780.45 63.5162 764.61Z" fill="#2F4DC7"/>
<path d="M307 444V314C307 307.096 312.596 301.5 319.5 301.5C326.404 301.5 332 307.096 332 314V431.5C332 459.943 355.057 483 383.5 483H422.5C429.404 483 435 488.596 435 495.5C435 502.404 429.404 508 422.5 508H371C335.654 508 307 479.346 307 444Z" stroke="#2F4DC7" stroke-width="2"/>
<rect x="306" y="327" width="27" height="27" rx="13.5" transform="rotate(-90 306 327)" fill="#638EEA"/>
<rect x="276" y="204" width="68" height="27" rx="13.5" transform="rotate(-90 276 204)" fill="#638EEA"/>
<rect x="62" y="580" width="27" height="27" rx="13.5" transform="rotate(-90 62 580)" fill="#638EEA"/>
<rect x="188" y="149" width="87" height="27" rx="13.5" transform="rotate(-90 188 149)" fill="#638EEA"/>
<rect x="37" y="450" width="72" height="27" rx="13.5" transform="rotate(-90 37 450)" fill="#638EEA"/>
</g>
<defs>
<linearGradient id="paint0_linear_436_2371" x1="201.5" y1="-118" x2="201.5" y2="250" gradientUnits="userSpaceOnUse">
<stop stop-color="#1C3CAD"/>
<stop offset="1" stop-color="#2F4DC7"/>
</linearGradient>
<clipPath id="clip0_436_2371">
<rect width="360" height="663" fill="white"/>
</clipPath>
</defs>
</svg>
