<?xml version="1.0" standalone="no"?>
<!DOCTYPE svg PUBLIC "-//W3C//DTD SVG 20010904//EN"
 "http://www.w3.org/TR/2001/REC-SVG-20010904/DTD/svg10.dtd">
<svg version="1.0" xmlns="http://www.w3.org/2000/svg"
 width="900.000000pt" height="660.000000pt" viewBox="0 0 900.000000 660.000000"
 preserveAspectRatio="xMidYMid meet">

<g transform="translate(0.000000,660.000000) scale(0.100000,-0.100000)"
fill="#000000" stroke="none">
<path d="M3975 6593 c-460 -54 -971 -184 -1400 -355 -766 -306 -1368 -766
-1811 -1384 -82 -115 -227 -358 -297 -499 -242 -488 -405 -1100 -457 -1720
-67 -802 223 -1521 795 -1975 307 -243 635 -388 995 -439 393 -56 745 -22
1090 104 518 191 920 558 1169 1068 165 338 200 478 208 847 10 413 -26 625
-157 929 -220 511 -675 950 -1202 1161 -149 60 -278 94 -438 116 -211 28 -249
36 -261 50 -25 30 142 311 283 479 131 155 456 466 603 576 227 172 591 400
890 558 161 86 258 154 278 195 22 48 22 130 -2 181 -45 97 -125 128 -286 108z"/>
<path d="M8645 6590 c-348 -31 -949 -186 -1360 -350 -177 -70 -502 -232 -660
-328 -637 -387 -1122 -907 -1444 -1550 -277 -553 -445 -1228 -458 -1849 -6
-265 3 -389 42 -598 120 -637 493 -1145 1080 -1472 494 -275 1152 -328 1706
-137 520 178 975 580 1230 1085 194 386 259 937 164 1391 -89 426 -359 876
-704 1172 -170 146 -284 220 -482 315 -215 103 -396 155 -654 186 -170 21
-175 22 -175 50 0 61 79 210 193 365 261 353 616 663 1122 979 168 104 206
127 425 248 199 110 268 159 301 212 33 51 36 87 14 152 -39 115 -128 148
-340 129z"/>
</g>
</svg>
