<svg width="22" height="32" viewBox="0 0 22 32" fill="none" xmlns="http://www.w3.org/2000/svg">
<path d="M13.2241 31.3276C9.96555 30.8712 0.963902 23.1156 6.96748 21.6008C14.8066 19.6222 19.4955 16.8722 22 9.25962C22 9.25962 20.5994 12.71 17.0829 15.6344C12.7296 19.2535 -0.766644 24.517 8.48884 8.79412C8.48884 8.79412 11.7846 12.9167 13.4887 17.4229C16.0584 16.1636 17.9171 14.4885 19.4476 12.5421C18.0966 14.023 16.5016 14.5753 16.5016 14.5753C14.1485 10.1633 10.3641 6.42774 8.69472 0C6.57887 7.53982 0.176764 11.4821 0.00395793 19.3601C-0.268895 31.8543 13.6565 31.5467 13.6565 31.5467C13.6565 31.5467 13.53 31.3698 13.2241 31.3276Z" fill="url(#paint0_linear_580_3750)"/>
<path d="M14.1527 19.5476C14.896 22.6515 14.5355 25.6628 11.4961 27.3834C11.4961 27.3834 18.8871 26.015 18.152 19.345L21.3006 12.207C19.5535 15.8194 17.1367 18.0188 14.1527 19.5476Z" fill="url(#paint1_linear_580_3750)"/>
<defs>
<linearGradient id="paint0_linear_580_3750" x1="-0.000167925" y1="15.7752" x2="22" y2="15.7752" gradientUnits="userSpaceOnUse">
<stop stop-color="#315CA7"/>
<stop offset="1" stop-color="#232E58"/>
</linearGradient>
<linearGradient id="paint1_linear_580_3750" x1="11.4965" y1="19.7948" x2="21.3012" y2="19.7948" gradientUnits="userSpaceOnUse">
<stop stop-color="#315CA7"/>
<stop offset="1" stop-color="#232E58"/>
</linearGradient>
</defs>
</svg>
